<?xml version="1.0" standalone="no"?>
<!DOCTYPE svg PUBLIC "-//W3C//DTD SVG 20010904//EN"
 "http://www.w3.org/TR/2001/REC-SVG-20010904/DTD/svg10.dtd">
<svg version="1.0" xmlns="http://www.w3.org/2000/svg"
 width="612.000000pt" height="612.000000pt" viewBox="0 0 612.000000 612.000000"
 preserveAspectRatio="xMidYMid meet">

<g transform="translate(0.000000,612.000000) scale(0.100000,-0.100000)"
fill="#000000" stroke="none">
<path d="M1730 4494 c0 -17 13 -39 39 -65 46 -46 75 -104 99 -197 15 -61 17
-145 17 -927 0 -810 -1 -864 -19 -930 -24 -90 -48 -137 -97 -190 -25 -27 -39
-52 -39 -69 l0 -26 475 0 475 0 0 28 c0 19 -11 39 -36 63 -20 18 -47 57 -61
84 -60 116 -57 62 -60 1144 l-4 994 98 -6 c230 -14 351 -108 409 -318 25 -89
25 -325 1 -424 -52 -206 -206 -372 -399 -432 -51 -15 -58 -20 -58 -43 0 -30
66 -155 198 -378 91 -153 198 -308 331 -482 84 -110 305 -331 401 -402 287
-211 597 -318 920 -318 202 0 370 39 535 123 78 39 82 35 -50 58 -122 20 -296
78 -433 144 -317 152 -606 398 -880 748 -126 162 -418 574 -411 581 2 2 31 11
64 21 89 25 212 86 283 140 132 100 192 223 200 412 8 202 -39 336 -162 458
-105 104 -246 168 -466 211 -72 14 -182 18 -727 21 l-643 4 0 -27z m1016
-1317 l-28 -23 22 -45 c47 -93 185 -315 272 -437 329 -460 602 -690 972 -817
145 -49 265 -68 446 -69 145 -1 175 -4 247 -26 46 -14 83 -28 83 -31 0 -10
-132 -38 -233 -49 -124 -14 -288 1 -442 40 -369 93 -679 321 -979 719 -163
217 -239 337 -414 654 l-32 57 52 24 c67 31 69 31 34 3z"/>
</g>
</svg>
